<svg width="120" height="38" viewBox="0 0 120 38" fill="none" xmlns="http://www.w3.org/2000/svg">
<path d="M26.749 12.005C25.097 13.1484 23.9101 14.5348 23.3759 16.3925C22.3946 19.8001 23.844 23.2797 26.9981 25.0113C27.5368 25.3069 27.6223 25.556 27.4077 26.1022C26.4474 28.5495 25.1255 30.7732 23.3354 32.6953C21.6983 34.4554 20.0088 34.865 17.8481 33.8672C15.5223 32.7929 13.3136 32.8244 10.9938 33.8717C8.77909 34.871 7.27559 34.5664 5.65656 32.7673C1.57822 28.2314 -0.588492 22.9571 0.139247 16.7841C0.563887 13.1799 2.44551 10.491 5.96866 9.17509C7.5982 8.56739 9.24574 8.58239 10.8798 9.2051C14.526 10.5976 13.6782 10.44 17.1383 9.2066C20.5039 8.0077 23.9536 8.80296 26.1458 11.2473C26.3424 11.4663 26.5149 11.7079 26.7505 12.0035L26.749 12.005Z" fill="#1D2E4E"/>
<path d="M69.2739 34.3913H67.5934C67.5934 33.9501 67.5934 33.536 67.5934 33.1219C67.5934 31.7969 67.6159 30.472 67.5799 29.1486C67.5499 28.0292 66.9722 27.453 65.9954 27.4635C65.02 27.474 64.3373 28.1447 64.3208 29.1936C64.2953 30.8891 64.3133 32.5847 64.3133 34.3508H62.6193C62.6193 33.5195 62.6193 32.6792 62.6193 31.8389C62.6193 30.9386 62.6373 30.0384 62.6118 29.1396C62.5802 28.0592 62.0431 27.4815 61.1023 27.462C60.1374 27.441 59.3962 28.1102 59.3647 29.1381C59.3197 30.586 59.2957 32.0385 59.3587 33.485C59.3917 34.2562 59.1606 34.5458 58.4044 34.4228C58.1658 34.3838 57.9197 34.3928 57.6406 34.3778V26.1836H59.2086C59.2251 26.5377 59.2416 26.8798 59.2642 27.3735C59.9094 26.4717 60.6821 25.948 61.719 25.9885C62.7603 26.029 63.5241 26.5152 63.9562 27.5565C64.735 26.3321 65.7943 25.7875 67.2078 26.0635C68.3827 26.2946 69.2184 27.1274 69.2559 28.3203C69.319 30.3129 69.2724 32.3101 69.2724 34.3883L69.2739 34.3913Z" fill="#1D2E4E"/>
<path d="M77.6954 27.615C78.2851 26.5301 79.1029 26.0679 80.1442 25.9929C81.6432 25.8849 82.8796 26.8092 82.9516 28.2842C83.0492 30.2963 82.9756 32.319 82.9756 34.3777H81.2936C81.2936 33.0587 81.2936 31.7668 81.2936 30.4749C81.2936 29.9752 81.3071 29.4741 81.2816 28.9744C81.2381 28.1041 80.7789 27.5834 79.9942 27.4754C79.1629 27.3599 78.3961 27.786 78.1546 28.5588C78.045 28.9084 78.018 29.294 78.012 29.6646C77.9925 31.1651 77.9985 32.6641 77.991 34.1646C77.991 34.2111 77.964 34.2561 77.9295 34.3612H76.3315C76.3315 33.3618 76.3315 32.37 76.3315 31.3767C76.3315 30.6009 76.3435 29.8267 76.327 29.0509C76.3075 28.1371 75.8483 27.591 75.038 27.4754C74.2263 27.3599 73.4565 27.789 73.1999 28.5678C73.0844 28.9144 73.0529 29.3015 73.0484 29.6706C73.0289 31.1711 73.0349 32.6701 73.0289 34.1706C73.0289 34.2171 73.0004 34.2621 72.9659 34.3627H71.4023V26.1715H72.9193C72.9539 26.5091 72.9899 26.8437 73.0379 27.3134C73.6921 26.3951 74.4844 25.9329 75.5062 25.9929C76.507 26.0514 77.2603 26.5196 77.6939 27.6135L77.6954 27.615Z" fill="#1D2E4E"/>
<path d="M37.8125 7.50195H44.9263V8.97694H39.5876V12.293H44.6382V13.7605H39.5936V17.2492H44.9173V18.7767H37.8125V7.50195Z" fill="#1D2E4E"/>
<path d="M47.2451 26.8389C46.7214 26.8389 46.4708 26.8134 46.2262 26.8434C45.6635 26.9154 45.3574 26.7384 45.1159 26.1652C44.6072 24.9588 43.5839 24.4486 42.2979 24.4366C40.9505 24.4231 39.9857 25.0803 39.4425 26.2582C38.6938 27.8802 38.7028 29.5668 39.4275 31.1948C39.9587 32.3862 40.9235 33.0344 42.2664 33.0404C43.6019 33.0464 44.6387 32.5648 45.2479 31.3029C45.3379 31.1153 45.6155 30.9412 45.8286 30.9052C46.2142 30.8407 46.6194 30.8872 47.017 30.8872C46.9885 32.6488 45.41 34.2048 43.3933 34.5139C39.6166 35.0916 37.0777 32.7748 37.1017 28.7355C37.1062 28.0423 37.1798 27.3281 37.3613 26.6618C37.912 24.6317 39.1829 23.2827 41.3181 22.9586C43.4173 22.6405 45.2569 23.1462 46.4813 25.0278C46.8069 25.529 46.9585 26.1427 47.2451 26.8359V26.8389Z" fill="#1D2E4E"/>
<path d="M54.2964 18.8078H52.7284C52.6969 18.4342 52.6669 18.0771 52.6264 17.6044C51.9736 18.3787 51.2729 18.8829 50.3141 18.9504C48.8331 19.0524 47.6042 18.3652 47.004 17.0042C46.3933 15.6208 46.3903 14.1908 46.8375 12.7654C47.5877 10.3751 50.6487 9.42976 52.5994 11.7405V7.53613H54.2949V18.8063L54.2964 18.8078ZM52.7284 14.764C52.5843 14.1893 52.5093 13.5846 52.2782 13.0489C51.9481 12.2807 51.3074 11.8516 50.4446 11.8606C49.5518 11.8696 48.8991 12.3137 48.599 13.136C48.407 13.6626 48.3019 14.2508 48.2989 14.8105C48.2914 16.4476 49.1902 17.5309 50.4671 17.5264C51.7351 17.5204 52.6084 16.4161 52.7284 14.764Z" fill="#1D2E4E"/>
<path d="M81.1166 18.7971H79.5426C79.5201 18.4265 79.4991 18.0859 79.4706 17.6132C78.6168 18.6426 77.6055 19.0912 76.3495 18.9247C75.0936 18.7566 74.2158 17.8953 74.1063 16.6814C74.0028 15.541 74.6615 14.5837 75.9024 14.2626C76.6436 14.0706 77.4299 14.0421 78.1967 13.9565C78.5883 13.913 78.9859 13.907 79.3625 13.8845C79.5486 12.8807 79.328 12.294 78.6813 11.9774C78.0001 11.6428 76.7742 11.7148 76.4621 12.294C75.9864 13.1763 75.3052 13.0352 74.4949 12.9692C74.4739 12.1289 74.8821 11.5452 75.4958 11.0831C76.6511 10.2128 78.8089 10.0928 79.9537 10.969C80.4654 11.3607 81.0236 12.0479 81.0611 12.6331C81.1961 14.6663 81.1136 16.7129 81.1136 18.7956L81.1166 18.7971ZM79.3775 15.0594C78.4682 15.1524 77.5935 15.1899 76.7412 15.3475C76.189 15.4495 75.8244 15.8471 75.8544 16.4789C75.8844 17.1031 76.267 17.4197 76.8297 17.5472C78.4037 17.9058 79.6026 16.806 79.3775 15.0594Z" fill="#1D2E4E"/>
<path d="M51.9957 34.5716C49.613 34.516 48.09 32.7755 48.144 30.1676C48.1965 27.5988 49.853 25.8972 52.2238 25.9752C54.5511 26.0518 56.0846 27.8133 56.0396 30.3582C55.9931 32.96 54.3935 34.6271 51.9957 34.5701V34.5716ZM54.383 30.3072C54.224 29.6905 54.1414 29.0903 53.9119 28.5531C53.5923 27.8073 52.9651 27.4277 52.1338 27.4157C51.274 27.4022 50.6183 27.7713 50.2702 28.5441C49.742 29.7145 49.745 30.9224 50.3032 32.0852C50.6423 32.7905 51.2575 33.1446 52.0528 33.1581C52.8765 33.1716 53.5337 32.8295 53.8699 32.0867C54.1204 31.5331 54.2165 30.9104 54.3845 30.3087L54.383 30.3072Z" fill="#1D2E4E"/>
<path d="M100.105 14.8468C100.06 16.2287 99.6733 17.6272 98.2313 18.4464C96.8719 19.2192 95.4554 19.2027 94.0915 18.4389C92.564 17.5837 91.8797 15.456 92.4019 13.3268C93.1041 10.4563 96.6273 9.38046 98.8285 11.3611C99.6463 12.0979 100.105 13.2907 100.107 14.8468H100.105ZM93.8979 14.6832C94.0569 15.2999 94.138 15.9001 94.369 16.4373C94.6902 17.183 95.3219 17.5552 96.1531 17.5612C96.9814 17.5687 97.6161 17.219 97.9687 16.4808C98.5359 15.2909 98.5389 14.0695 97.9567 12.8811C97.5951 12.1429 96.9529 11.8128 96.1276 11.8248C95.3249 11.8353 94.7052 12.1924 94.3886 12.9021C94.1425 13.4573 94.0569 14.083 93.8979 14.6847V14.6832Z" fill="#1D2E4E"/>
<path d="M112.152 26.1556H113.98C114.655 28.3103 115.33 30.4665 116.006 32.6227C116.057 32.6272 116.106 32.6302 116.157 32.6347C116.387 31.913 116.619 31.1913 116.844 30.468C117.217 29.2766 117.625 28.0942 117.94 26.8894C118.103 26.2606 118.4 26.0221 119.029 26.1121C119.314 26.1526 119.611 26.1196 120 26.1196C119.469 27.6246 118.977 29.0336 118.474 30.4395C117.886 32.0841 117.323 33.7406 116.685 35.3656C115.991 37.1362 114.897 37.7244 112.991 37.4273V36.1534C113.798 36.1189 114.651 36.0859 114.891 35.0985C114.985 34.7129 115.024 34.2493 114.9 33.8847C114.106 31.5709 113.26 29.2751 112.433 26.9734C112.343 26.7213 112.26 26.4662 112.154 26.1541L112.152 26.1556Z" fill="#1D2E4E"/>
<path d="M108.884 18.7898H107.197C107.197 17.3943 107.197 16.0484 107.197 14.7025C107.197 14.3528 107.208 14.0017 107.181 13.6536C107.085 12.4697 106.525 11.8905 105.481 11.871C104.387 11.85 103.545 12.5748 103.503 13.6941C103.448 15.1916 103.481 16.6921 103.472 18.1911C103.472 18.3652 103.455 18.5377 103.442 18.7763H101.785V10.5776H103.331C103.353 10.9497 103.374 11.3083 103.406 11.814C104.193 10.7141 105.172 10.2925 106.38 10.4321C107.882 10.6061 108.816 11.5109 108.87 13.0324C108.938 14.9275 108.887 16.8257 108.887 18.7898H108.884Z" fill="#1D2E4E"/>
<path d="M61.9072 10.5693H63.5562V18.792H62.0047C61.9747 18.4274 61.9447 18.0748 61.9042 17.5796C61.1224 18.7665 60.0916 19.0906 58.8597 18.9316C57.6548 18.7755 56.6524 18.0103 56.5804 16.8054C56.4574 14.7482 56.5474 12.679 56.5474 10.5708H58.1709C58.1709 11.7862 58.1709 12.9761 58.1709 14.166C58.1709 14.6912 58.1604 15.2149 58.1799 15.74C58.2204 16.8249 58.7411 17.4056 59.7314 17.5031C60.7128 17.6006 61.5365 17.068 61.7721 16.1287C61.8741 15.7235 61.8967 15.2899 61.9012 14.8697C61.9162 13.4518 61.9072 12.0353 61.9072 10.5708V10.5693Z" fill="#1D2E4E"/>
<path d="M101.349 34.3763H99.7057C99.7057 33.0679 99.7057 31.8 99.7057 30.5321C99.7057 30.1314 99.7192 29.7308 99.6967 29.3332C99.6277 28.0938 99.0725 27.4906 97.9981 27.4681C96.8713 27.4441 96.04 28.1853 95.9995 29.3512C95.953 30.7241 95.9815 32.1001 95.977 33.4745C95.977 33.7461 95.977 34.0177 95.977 34.3538H94.2949V26.1626H95.8554V27.3945C96.0805 27.1575 96.202 27.0254 96.3281 26.8964C97.2254 25.9661 98.3267 25.819 99.5091 26.1356C100.592 26.4267 101.268 27.225 101.32 28.2888C101.421 30.301 101.349 32.3207 101.349 34.3763Z" fill="#1D2E4E"/>
<path d="M85.1538 26.1387H86.6753C86.6903 26.4133 86.7174 26.6743 86.7189 26.9369C86.7234 28.3099 86.7053 29.6843 86.7264 31.0573C86.7474 32.4287 87.3386 33.095 88.4834 33.098C89.6703 33.101 90.4251 32.3297 90.4446 31.0243C90.4686 29.4293 90.4506 27.8342 90.4506 26.1792H92.1446V34.3734H90.5946C90.5676 34.0058 90.5436 33.6697 90.5031 33.131C89.7874 34.2368 88.8616 34.6285 87.7137 34.5489C86.2342 34.4469 85.1643 33.5736 85.0803 32.0896C84.9723 30.1735 85.0458 28.2469 85.0473 26.3232C85.0473 26.2617 85.1148 26.2002 85.1508 26.1387H85.1538Z" fill="#1D2E4E"/>
<path d="M20.5188 0.499023C21.1415 4.28177 17.4683 8.50866 13.8551 8.22356C12.9908 5.00951 16.8501 0.506526 20.5188 0.499023Z" fill="#1D2E4E"/>
<path d="M72.7411 15.99C72.6736 17.5295 71.5647 18.6728 70.0147 18.9129C66.7977 19.4096 64.6414 16.8152 65.4622 13.4361C66.0879 10.8613 68.6358 9.63987 70.999 10.7938C72.0374 11.3009 72.6331 12.1292 72.7741 13.3341C71.9879 13.3746 71.3126 13.6372 70.816 12.6439C70.2263 11.4645 68.3777 11.5665 67.5914 12.6964C66.8952 13.6987 66.8712 15.5938 67.5449 16.6247C68.4077 17.9466 70.3328 17.8581 71.0396 16.4446C71.4762 15.5713 72.1844 16.2721 72.7426 15.99H72.7411Z" fill="#1D2E4E"/>
<path d="M107.828 24.1982H109.555V26.0814H111.082V27.4498H109.573C109.573 28.0335 109.573 28.5437 109.573 29.0553C109.573 29.8806 109.571 30.7059 109.573 31.5312C109.576 32.9011 109.696 33.0271 111.094 33.1007V34.3296C109.117 34.9643 107.858 34.0865 107.844 32.0608C107.835 30.5648 107.843 29.0688 107.843 27.5293C107.426 27.4948 107.065 27.4663 106.674 27.4333V26.1624C107.044 26.1369 107.406 26.1114 107.825 26.0814V24.1982H107.828Z" fill="#1D2E4E"/>
<path d="M82.5254 11.8463V10.5694C82.9035 10.5424 83.2456 10.5199 83.6748 10.4899V8.61426H85.4048V10.5169H86.9413V11.8358C86.4867 11.8658 86.005 11.8973 85.4694 11.9333C85.4694 13.5809 85.4048 15.1984 85.4964 16.8055C85.5429 17.6277 86.3727 17.4297 86.9564 17.5302V18.7096C85.1348 19.4238 83.7123 18.4995 83.6928 16.5819C83.6763 15.0604 83.6898 13.5389 83.6898 11.9379C83.2996 11.9078 82.9395 11.8793 82.5254 11.8478V11.8463Z" fill="#1D2E4E"/>
<path d="M88.8926 10.5664H90.5161V18.7861H88.8926V10.5664Z" fill="#1D2E4E"/>
<path d="M105.167 34.3859H103.547V26.1797H105.167V34.3859Z" fill="#1D2E4E"/>
<path d="M89.5602 9.31277C89.0935 9.25425 88.7589 8.93765 88.7259 8.36146C88.6959 7.83479 89.203 7.33212 89.7237 7.38014C90.2909 7.43266 90.6345 7.77327 90.675 8.34345C90.7125 8.86563 90.2069 9.32928 89.5602 9.31277Z" fill="#1D2E4E"/>
<path d="M105.319 24.1052C105.235 24.5763 104.915 24.9049 104.33 24.9079C103.803 24.9109 103.304 24.3828 103.379 23.8801C103.461 23.3219 103.808 22.9843 104.387 22.9738C104.93 22.9633 105.359 23.4615 105.319 24.1067V24.1052Z" fill="#1D2E4E"/>
</svg>
