<svg width="114" height="52" viewBox="0 0 114 52" fill="none" xmlns="http://www.w3.org/2000/svg">
<path d="M10.4169 23.1023C7.98938 23.0742 5.51303 22.3082 3.39904 20.5565C1.45213 18.94 0.342567 16.858 0.0703383 14.3309C-0.194381 11.879 0.359464 9.62232 1.66804 7.55338C2.24441 6.6447 2.89776 5.75855 3.93035 5.32673C4.31711 5.16528 4.83528 5.10332 5.22954 5.21597C6.15887 5.47693 6.39543 6.37247 5.78526 7.12908C5.53369 7.44073 5.22203 7.71484 4.90099 7.96078C2.15242 10.0691 1.5629 14.0587 3.59805 16.8692C5.25019 19.1522 8.91308 20.1022 11.487 18.9194C11.9958 18.6847 12.4464 18.3824 12.4427 17.7685C12.437 17.0063 11.947 16.5182 11.2824 16.2797C10.3756 15.953 9.41999 15.7597 8.51318 15.433C7.98375 15.2415 7.43741 14.9787 7.0225 14.6088C6.01243 13.7076 6.07814 12.4835 7.09008 11.558C7.88236 10.8333 8.86614 10.5648 9.87996 10.4841C13.8977 10.1649 17.1719 8.28182 20.1308 5.71536C21.0376 4.92872 21.9068 4.09513 22.8268 3.32351C23.4294 2.81848 24.1485 2.56127 24.9558 2.66077C25.9095 2.77717 26.3376 3.42864 25.9903 4.32418C25.5754 5.3962 24.8056 6.22227 23.9589 6.96949C21.3361 9.28813 18.3791 11.0548 15.1255 12.3484C14.8195 12.4704 14.4703 12.8065 14.3971 13.105C14.2844 13.5668 14.6562 13.9554 15.073 14.1132C15.8727 14.4135 16.7101 14.6069 17.5193 14.8791C18.1069 15.0782 18.7189 15.2603 19.239 15.5794C20.2829 16.2215 20.6039 17.4062 20.174 18.5702C19.729 19.7736 18.794 20.5171 17.7446 21.1235C15.5742 22.3814 13.2368 23.0873 10.4132 23.1005L10.4169 23.1023Z" fill="#1D2E4E"/>
<path d="M16.0633 34.3143V28.9561H19.9571V46.8368H16.4182C16.4013 46.6077 16.3825 46.3824 16.3581 46.0652C14.7322 47.1578 12.973 47.2855 11.1519 46.9156C9.26886 46.5345 7.8514 45.485 6.91268 43.816C5.72426 41.7039 5.67732 38.1349 7.67679 35.7787C9.14683 34.0477 12.2371 32.5908 16.0633 34.3124V34.3143ZM16.1853 40.4009C16.1666 40.1587 16.1628 39.9541 16.1347 39.7551C15.9788 38.6098 15.4269 37.703 14.3511 37.2506C13.3054 36.8113 12.2258 36.862 11.2777 37.5491C10.2132 38.3207 9.93911 39.4416 10.0105 40.6938C10.1231 42.6482 12.0456 44.0225 13.9305 43.4818C15.3367 43.0782 16.1703 41.9254 16.1853 40.4009Z" fill="#1D2E4E"/>
<path d="M66.8506 46.3092V51.1436C66.6779 51.1624 66.5577 51.1887 66.4394 51.1887C65.4068 51.1924 64.3743 51.1812 63.3417 51.1962C63.0263 51.2018 62.9023 51.1192 62.9023 50.7775C62.9117 45.2316 62.908 39.6856 62.9099 34.1396C62.9099 34.0345 62.9343 33.9294 62.9512 33.798H66.5896C66.6047 34.0477 66.6178 34.2748 66.6366 34.5715C66.9257 34.4062 67.1623 34.2279 67.4289 34.1228C69.5053 33.2986 71.5836 33.2573 73.5793 34.3124C75.5075 35.3299 76.4744 37.044 76.7466 39.1618C76.9324 40.6093 76.8254 42.038 76.1871 43.3729C74.9424 45.9807 72.7983 47.124 69.9634 47.094C68.9646 47.0827 68.0127 46.8724 67.1191 46.4162C67.0552 46.3843 66.9839 46.3618 66.8487 46.3092H66.8506ZM69.8695 37.0121C68.0071 36.9896 66.7398 38.3169 66.7211 40.3108C66.7042 42.1901 68.0146 43.6001 69.7925 43.6188C71.6644 43.6395 72.8847 42.3722 72.9222 40.369C72.9579 38.4315 71.6888 37.0347 69.8695 37.0121Z" fill="#1D2E4E"/>
<path d="M45.0796 34.5005C45.1003 34.2714 45.1191 34.0611 45.1416 33.8114H48.7557V46.8803H46.3694C46.2286 46.8803 46.0878 46.8803 45.947 46.8803C45.4576 46.8803 45.1823 46.6281 45.1209 46.1237C42.8999 47.436 40.6132 47.3985 38.3321 46.3847C37.1981 45.8796 36.3495 44.9954 35.7356 43.9064C34.4965 41.7098 34.4815 37.7897 36.6762 35.473C38.3115 33.7476 42.3179 32.6587 45.0778 34.5023L45.0796 34.5005ZM44.9764 40.3299C44.9689 40.1685 44.9726 39.9638 44.9445 39.7629C44.7736 38.5332 44.1297 37.6076 42.9619 37.2096C41.7772 36.806 40.6076 36.9468 39.6745 37.9024C38.9122 38.6853 38.7245 39.6653 38.8259 40.7148C39.038 42.9133 40.8254 44.021 42.853 43.4821C44.1785 43.1311 44.9332 41.9633 44.9745 40.3299H44.9764Z" fill="#1D2E4E"/>
<path d="M53.9291 41.5986C54.008 41.9816 54.0474 42.3421 54.1582 42.6782C54.3891 43.3709 55.0162 43.7502 55.8103 43.7201C56.5575 43.6939 57.1358 43.2902 57.316 42.6707C57.5226 41.9591 57.2897 41.2476 56.5895 40.8627C55.8291 40.444 55.0162 40.1155 54.2145 39.7794C52.9979 39.2687 51.8095 38.7412 51.0623 37.5565C50.0297 35.9175 49.8307 32.8441 51.6762 31.0493C52.3277 30.4166 53.1031 29.9961 53.9798 29.7783C55.2471 29.4647 56.5219 29.4892 57.7854 29.7914C59.5502 30.2138 60.7499 31.5994 60.9808 33.4581C61.0334 33.8861 61.0428 34.3198 61.0728 34.7948H57.3555C57.2484 34.4362 57.1827 34.0795 57.0363 33.7622C56.7659 33.1727 56.2365 33.0131 55.6338 33.0525C55.0988 33.0882 54.6726 33.3041 54.4698 33.8392C54.2464 34.4287 54.3403 34.9807 54.8397 35.3543C55.2696 35.6753 55.769 35.9119 56.2609 36.139C57.2334 36.5915 58.2754 36.9201 59.1916 37.4626C61.3262 38.728 61.8669 40.7369 61.4408 43.0368C61.0371 45.2165 59.5877 46.48 57.4888 46.985C55.8422 47.3811 54.1957 47.2892 52.6281 46.5964C51.1374 45.9374 50.5066 44.6438 50.2212 43.1438C50.1273 42.6481 50.1311 42.1318 50.0879 41.5949H53.9273L53.9291 41.5986Z" fill="#1D2E4E"/>
<path d="M25.295 41.5883C25.4602 42.6716 26.0628 43.2555 26.9753 43.5014C28.4979 43.9126 29.7445 43.4714 30.6907 42.1121C31.6876 42.6941 32.6733 43.2686 33.6834 43.8581C32.7315 45.5553 31.3741 46.6367 29.4779 46.954C27.3376 47.3107 25.3006 47.0704 23.5264 45.6943C22.2554 44.7086 21.5607 43.37 21.3223 41.8023C21.0895 40.2666 21.1608 38.7477 21.8142 37.3059C22.7341 35.2745 24.2793 34.0016 26.4928 33.6317C28.0191 33.3764 29.5286 33.5303 30.9217 34.2494C32.7672 35.2031 33.7566 36.7839 34.0307 38.8078C34.1321 39.5607 34.0833 40.3323 34.1189 41.0945C34.1358 41.4757 33.9913 41.5996 33.6026 41.5977C31.0362 41.5827 28.4716 41.5902 25.9051 41.5902C25.7211 41.5902 25.539 41.5902 25.2987 41.5902L25.295 41.5883ZM30.0092 38.8548C29.951 37.58 28.8715 36.7107 27.5329 36.7896C26.3445 36.859 25.3926 37.7809 25.4508 38.8285C25.5709 38.8379 25.693 38.8529 25.815 38.8529C27.2043 38.8529 28.5936 38.8529 30.0092 38.8529V38.8548Z" fill="#1D2E4E"/>
<path d="M84.4369 47.0984C82.4693 47.0702 80.6932 46.4638 79.3058 44.9224C78.5605 44.0926 78.0667 43.1332 77.8452 42.0462C77.3833 39.7726 77.7231 37.6624 79.2664 35.8581C80.8528 34.0032 82.9405 33.3743 85.3117 33.5677C86.9094 33.6972 88.3382 34.2341 89.5116 35.3813C91.1036 36.9395 91.6368 38.8658 91.4547 41.0098C91.2782 43.0788 90.3226 44.7441 88.6029 45.9362C87.3694 46.7942 85.9707 47.1002 84.435 47.0984H84.4369ZM87.5778 40.349C87.5947 38.2988 86.1303 36.8926 84.1796 37.0879C82.6683 37.2399 81.7089 38.3551 81.5681 40.1256C81.3804 42.4724 83.408 44.1076 85.6234 43.3942C86.8156 43.0093 87.5665 41.8415 87.5778 40.3471V40.349Z" fill="#1D2E4E"/>
<path d="M106.588 37.0345C106.115 37.0345 105.666 37.0439 105.218 37.0308C104.962 37.0233 104.853 37.1096 104.853 37.3781C104.861 39.0321 104.838 40.688 104.867 42.342C104.882 43.2094 105.195 43.4741 106.055 43.4798C106.224 43.4798 106.393 43.4798 106.616 43.4798C106.616 44.5555 106.622 45.5806 106.605 46.6057C106.605 46.6958 106.453 46.8423 106.352 46.861C105.221 47.0676 104.089 47.1408 102.978 46.7578C101.727 46.3278 101.07 45.3891 101.01 44.1218C100.924 42.2838 100.95 40.4402 100.93 38.6003C100.924 38.1028 100.93 37.6071 100.93 37.0646C100.543 37.0458 100.194 37.0308 99.8125 37.012V33.7734H100.93C100.93 33.1538 100.931 32.5944 100.93 32.0368C100.93 31.8321 100.941 31.665 101.217 31.665C102.401 31.6707 103.588 31.6669 104.855 31.6669C104.855 32.2433 104.872 32.7821 104.85 33.3191C104.835 33.6683 104.957 33.7941 105.306 33.7734C105.723 33.749 106.141 33.7678 106.588 33.7678V37.0326V37.0345Z" fill="#1D2E4E"/>
<path d="M92.7323 46.8787V33.8118H96.6074C96.6243 34.0558 96.6393 34.298 96.6618 34.6247C97.3095 34.0051 98.0173 33.6766 98.9035 33.7104V37.8069C98.5524 37.8069 98.1994 37.7957 97.8465 37.8088C96.981 37.8426 96.6675 38.1149 96.6581 38.9672C96.6318 41.4022 96.6393 43.8373 96.6337 46.2723C96.6337 46.6753 96.429 46.8769 96.0197 46.8769C94.944 46.8769 93.8682 46.8769 92.7305 46.8769L92.7323 46.8787Z" fill="#1D2E4E"/>
<path d="M2.10273 34.9414H5.95899C5.44457 37.8496 4.93767 40.7314 4.427 43.6114C4.25428 44.5914 4.08531 45.5733 3.89569 46.5515C3.87316 46.6716 3.73235 46.8594 3.64411 46.8613C2.4463 46.8819 1.24662 46.8744 0 46.8744C0.705917 42.8661 1.40057 38.9178 2.10085 34.9414H2.10273Z" fill="#1D2E4E"/>
<path d="M108.047 41.8134C108.437 39.5924 108.822 37.3996 109.211 35.2086C109.504 33.5527 109.797 31.8968 110.105 30.2428C110.129 30.1132 110.277 29.9048 110.369 29.9029C111.554 29.8804 112.739 29.8879 114 29.8879C113.296 33.8925 112.602 37.8389 111.901 41.8134H108.047Z" fill="#1D2E4E"/>
<path d="M7.68362 4.17588C7.67611 2.35476 9.09921 0.830283 10.8302 0.803999C12.5293 0.779592 13.9975 2.31158 14.0237 4.13833C14.05 5.92378 12.5856 7.48956 10.8678 7.51021C9.16305 7.53086 7.69301 5.99136 7.68362 4.17588Z" fill="#1D2E4E"/>
<path d="M107.057 44.7758C107.029 43.4184 108.06 42.3689 109.43 42.3614C110.773 42.3539 111.79 43.3433 111.839 44.7044C111.886 46.0355 110.836 47.1488 109.504 47.1789C108.137 47.2089 107.085 46.1763 107.057 44.7758Z" fill="#1D2E4E"/>
<path d="M6.93386 32.0638C6.88693 33.455 5.86185 34.4406 4.49695 34.405C3.12266 34.3693 2.1295 33.3198 2.16705 31.9436C2.20459 30.5562 3.28037 29.548 4.66592 29.6006C6.00078 29.6513 6.97892 30.712 6.93386 32.0619V32.0638Z" fill="#1D2E4E"/>
</svg>
