<svg width="120" height="24" viewBox="0 0 120 24" fill="none" xmlns="http://www.w3.org/2000/svg">
<path d="M0 0.625843C0.928924 0.589078 1.85785 0.535156 2.78677 0.535156C2.88113 0.535156 3.05515 0.850108 3.05883 1.02168C3.08212 2.28271 3.07231 3.54497 3.07231 4.80723C3.07231 7.45184 3.07231 10.0952 3.07231 12.8648C3.28065 12.7104 3.42403 12.6234 3.54413 12.5119C5.95099 10.2864 8.35296 8.05478 10.7672 5.83541C10.9486 5.66875 11.2084 5.49473 11.4375 5.4886C12.5993 5.45429 13.7623 5.47267 14.9253 5.4788C15.0209 5.4788 15.1165 5.52659 15.3775 5.59644C15.152 5.85992 15.0049 6.07561 14.8162 6.24473C12.1593 8.61974 9.49635 10.9886 6.83335 13.3575C6.74266 13.4384 6.62992 13.4935 6.48163 13.5903C9.80762 16.7729 13.0552 19.8808 16.3015 22.9874C16.2623 23.0573 16.2231 23.1271 16.1851 23.197C15.9964 23.2203 15.8089 23.2619 15.6201 23.2632C14.5797 23.2693 13.538 23.295 12.5 23.2484C12.1937 23.235 11.8272 23.0818 11.6079 22.8685C8.90321 20.2448 6.2206 17.5977 3.53065 14.958C3.42035 14.8501 3.2978 14.7546 3.10663 14.5916C3.09315 14.8747 3.07599 15.0671 3.07599 15.2595C3.07354 17.7227 3.06251 20.1847 3.08457 22.648C3.08824 23.1247 2.96202 23.306 2.46814 23.2754C1.85907 23.2374 1.24388 23.2803 0.63358 23.2583C0.42157 23.2509 0.213236 23.1565 0.00367648 23.1014C0 15.6099 0 8.11851 0 0.625843Z" fill="#1D2E4E"/>
<path d="M98.2042 9.73375C98.2029 14.8882 94.3132 18.8232 89.1037 18.9482C85.8488 19.0267 82.9958 18.0928 80.9505 15.4593C78.7458 12.6222 78.3965 9.42125 79.7103 6.12835C81.0031 2.88447 83.5706 1.14304 86.986 0.622209C89.0669 0.304806 91.0951 0.531522 93.0142 1.42858C96.3071 2.9678 98.2054 6.02296 98.2042 9.73375ZM88.562 16.2607C92.3279 16.2644 95.0142 13.5316 95.0032 9.70924C94.9922 5.9335 92.3267 3.20065 88.6478 3.19207C84.8733 3.18349 82.2593 5.83301 82.2433 9.68473C82.2274 13.5512 84.8279 16.2583 88.562 16.262V16.2607Z" fill="#1D2E4E"/>
<path d="M58.6775 14.9593C58.6566 19.8993 53.9606 23.7963 48.1346 23.2804C44.7338 22.9802 42.05 21.4593 40.4838 18.3613C37.8539 13.1603 40.3735 6.0034 47.474 5.0132C50.6125 4.5757 53.4863 5.21541 55.8662 7.42375C57.8111 9.2289 58.6738 11.512 58.6763 14.9581L58.6775 14.9593ZM49.0598 7.561C45.3123 7.56836 42.702 10.2559 42.6983 14.1076C42.6946 17.9458 45.3233 20.6517 49.0623 20.6578C52.8417 20.664 55.4679 17.9385 55.463 14.0132C55.4581 10.2595 52.7731 7.55365 49.061 7.561H49.0598Z" fill="#1D2E4E"/>
<path d="M21.3959 7.34688C22.0956 6.94737 22.7059 6.55031 23.3554 6.23536C27.277 4.33707 32.3444 5.26109 35.1484 8.40571C36.69 10.1349 37.38 12.2023 37.3824 14.505C37.3849 17.2109 37.3714 19.9168 37.3935 22.6227C37.3971 23.1337 37.2354 23.3028 36.7305 23.2746C36.0797 23.2379 35.4241 23.2415 34.7734 23.2746C34.2856 23.2991 34.1471 23.119 34.1508 22.6386C34.1716 19.8714 34.1631 17.1055 34.1606 14.3383C34.1569 10.7415 31.5528 8.05031 27.989 7.95595C24.3027 7.85914 21.5503 10.3616 21.4339 14.0454C21.3444 16.8702 21.3873 19.6999 21.4106 22.5283C21.4155 23.119 21.2464 23.3212 20.6545 23.2783C20.0049 23.2305 19.3493 23.2538 18.6973 23.2722C18.3321 23.2832 18.1753 23.1582 18.1949 22.7807C18.2169 22.3543 18.1998 21.9266 18.1998 21.4989C18.1998 16.3518 18.2084 11.2047 18.1875 6.05766C18.1851 5.46084 18.3138 5.20227 18.962 5.26109C19.5895 5.31746 20.2255 5.28805 20.8567 5.26844C21.25 5.25619 21.4155 5.4008 21.4008 5.79908C21.3812 6.29908 21.3959 6.80031 21.3959 7.3481V7.34688Z" fill="#1D2E4E"/>
<path d="M104.033 7.43128C105.44 6.35898 106.871 5.71069 108.465 5.44476C113.114 4.6678 117.718 6.64329 119.378 11.1127C119.733 12.0661 119.932 13.1237 119.96 14.1409C120.038 16.9668 119.975 19.7977 119.998 22.6262C120.002 23.136 119.854 23.3075 119.345 23.2757C118.715 23.2365 118.079 23.2401 117.449 23.2757C116.951 23.3026 116.782 23.1458 116.785 22.6262C116.81 19.8382 116.813 17.0502 116.793 14.2622C116.769 11.2487 114.802 8.75849 111.986 8.12369C107.675 7.15064 104.045 10.0281 104.034 14.4362C104.028 17.1629 104.022 19.8896 104.043 22.6164C104.046 23.1262 103.887 23.3051 103.38 23.2769C102.75 23.2426 102.114 23.2389 101.484 23.2769C100.98 23.3075 100.818 23.1458 100.824 22.6311C100.85 20.4338 100.835 18.2352 100.835 16.0379C100.835 12.6801 100.845 9.32222 100.826 5.96437C100.823 5.44843 100.94 5.22294 101.502 5.26216C102.172 5.30873 102.848 5.28544 103.52 5.26829C103.887 5.25971 104.043 5.40677 104.035 5.76951C104.024 6.27442 104.033 6.77932 104.033 7.43251V7.43128Z" fill="#1D2E4E"/>
<path d="M62.0595 8.04875C61.0313 8.04875 60.0766 8.02669 59.1232 8.05732C58.6342 8.07326 58.47 7.89801 58.5019 7.42252C58.535 6.91639 58.5288 6.40413 58.5031 5.89678C58.4823 5.49727 58.6293 5.36246 59.0301 5.37227C60.0068 5.39555 60.9835 5.37962 62.0595 5.37962C62.0595 5.08183 62.0595 4.82815 62.0595 4.57325C62.0595 3.41393 62.0742 2.25339 62.0521 1.09407C62.0435 0.665149 62.2016 0.514413 62.6207 0.527894C63.3131 0.548727 64.008 0.553629 64.7004 0.526668C65.1587 0.508286 65.3095 0.687208 65.3009 1.13329C65.2801 2.31344 65.2923 3.49359 65.296 4.67374C65.296 4.89188 65.3156 5.11001 65.3279 5.38085C66.7862 5.38085 68.1894 5.41148 69.5913 5.36614C70.1784 5.34776 70.3389 5.54629 70.2899 6.09041C70.2482 6.55487 70.258 7.02668 70.2874 7.4936C70.3144 7.92375 70.149 8.06223 69.7249 8.0561C68.3989 8.03649 67.073 8.04875 65.7482 8.0512C65.6281 8.0512 65.508 8.07081 65.356 8.08429C65.3352 8.22889 65.2972 8.3637 65.2985 8.49973C65.3168 10.7571 65.2261 13.023 65.3916 15.2694C65.5815 17.849 67.4235 19.8625 69.9247 20.4875C70.4063 20.6076 70.5668 20.8061 70.535 21.273C70.5031 21.7387 70.4958 22.2118 70.535 22.6762C70.5864 23.2743 70.2629 23.3012 69.8205 23.2216C66.8855 22.6958 64.5999 21.2338 63.1453 18.588C62.3524 17.1456 62.0497 15.5855 62.057 13.9519C62.0656 12.0206 62.0595 10.0904 62.0595 8.04875Z" fill="#1D2E4E"/>
<path d="M76.4048 14.2995C76.4048 17.085 76.3937 19.8718 76.4158 22.6574C76.4195 23.1463 76.27 23.2995 75.7908 23.275C75.1205 23.2407 74.444 23.2333 73.7736 23.2762C73.2307 23.3105 73.1928 23.036 73.194 22.6108C73.205 18.9502 73.2001 15.2909 73.2001 11.6304C73.2001 9.7186 73.2124 7.80683 73.1915 5.89629C73.1866 5.4208 73.3312 5.2382 73.819 5.26394C74.4697 5.29702 75.1254 5.3056 75.7749 5.26148C76.319 5.22472 76.4158 5.46492 76.4134 5.94163C76.3962 8.72718 76.4048 11.5127 76.4048 14.2995Z" fill="#1D2E4E"/>
<path d="M94.7113 21.3105C94.3768 21.1622 94.0606 21.0225 93.7468 20.8852C93.7959 20.7725 93.8094 20.7063 93.8265 20.7051C95.0679 20.6401 96.2554 20.8877 97.3645 21.4293C97.8657 21.6732 97.8535 22.1561 97.3425 22.4048C96.8547 22.6426 96.3228 22.8448 95.7898 22.9281C90.9025 23.7026 86.0128 23.7419 81.1316 22.8558C80.7358 22.7835 80.3387 22.6463 79.9833 22.4612C79.7774 22.3546 79.5213 22.0887 79.5275 21.9012C79.5336 21.7075 79.7946 21.4293 80.0042 21.3534C80.6304 21.123 81.2799 20.9416 81.9343 20.8031C82.427 20.699 82.9405 20.6928 83.4441 20.6426C83.4625 20.7198 83.4809 20.797 83.4993 20.8742C83.1733 21.0176 82.8473 21.161 82.4944 21.3166C84.0397 22.4122 93.2812 22.4024 94.7101 21.3105H94.7113Z" fill="#1D2E4E"/>
<path d="M76.4027 2.07368C76.4027 3.14231 75.8745 3.67663 74.8181 3.67663C73.7388 3.67663 73.1992 3.13333 73.1992 2.04672C73.1992 1.03773 73.6972 0.53324 74.6931 0.53324C75.0791 0.53324 75.4664 0.550397 75.8512 0.529563C76.2777 0.505053 76.4406 0.68275 76.4076 1.10187C76.383 1.42417 76.4027 1.75015 76.4027 2.07491V2.07368Z" fill="#1D2E4E"/>
</svg>
