<svg width="120" height="28" viewBox="0 0 120 28" fill="none" xmlns="http://www.w3.org/2000/svg">
<path d="M53.305 14.0513C53.305 9.92163 53.305 5.79535 53.305 1.66565C53.305 0.722107 53.5511 0.407594 54.4981 0.404175C57.9406 0.387082 61.39 0.260593 64.8189 0.469129C67.294 0.61613 69.5366 1.70667 70.9314 3.87408C72.8322 6.83461 72.7843 10.2054 70.2853 13.0531C69.5059 13.9385 69.5161 14.0274 70.2716 14.8821C71.5776 16.3657 72.2271 18.1058 72.2442 20.0818C72.2613 22.215 72.2579 24.3517 72.3126 26.4849C72.3297 27.1413 72.0459 27.3669 71.4682 27.3703C70.7844 27.3771 70.1007 27.3464 69.4204 27.3703C68.7196 27.3977 68.47 27.0968 68.4803 26.3994C68.511 24.2354 68.4939 22.0714 68.4974 19.9074C68.4974 17.9075 67.2974 16.2564 65.3215 16.0068C63.3865 15.7607 61.4106 15.788 59.4551 15.7538C57.1339 15.7128 57.1304 15.4222 57.1544 18.0511C57.1783 20.6971 57.1612 23.3466 57.1612 25.9926C57.1612 27.2643 57.0279 27.3874 55.722 27.3703C55.551 27.3703 55.3801 27.3635 55.2092 27.3635C52.97 27.3942 53.3152 27.3703 53.3084 25.4046C53.2947 21.6168 53.305 17.8323 53.305 14.0445V14.0513ZM61.4687 12.1677V12.1608C62.2926 12.1608 63.1199 12.1301 63.9438 12.1677C64.942 12.2155 65.8343 11.9933 66.6855 11.4532C68.5316 10.2806 68.9452 8.26018 68.2205 6.53036C67.4991 4.81079 66.0496 3.9869 64.1386 4.01083C62.1763 4.03476 60.2106 4.0245 58.2483 3.99373C57.4415 3.98006 57.1304 4.30483 57.1407 5.11163C57.168 7.13203 57.1646 9.15586 57.1202 11.1797C57.1031 11.9455 57.4244 12.1916 58.1389 12.1745C59.2466 12.1472 60.3576 12.1677 61.4687 12.1677Z" fill="#1D2E4E"/>
<path d="M27.8414 27.4386C27.1474 27.4386 26.6585 27.4899 26.1868 27.4113C26.0124 27.3805 25.7218 26.984 25.7663 26.8575C26.1765 25.7191 26.6585 24.6046 27.1064 23.4799C27.6602 22.0885 28.1935 20.6903 28.7439 19.2989C29.3251 17.8255 29.9233 16.3623 30.5045 14.8889C31.0344 13.5488 31.554 12.2052 32.0771 10.8651C32.6719 9.337 33.2702 7.80888 33.8548 6.28075C34.4017 4.85518 34.9726 3.43987 35.4615 1.99379C35.8205 0.937434 36.2546 0.537455 37.3452 0.534036C37.5435 0.534036 37.7486 0.554548 37.9434 0.52378C39.2733 0.322081 40.1314 0.783596 40.5826 2.12712C41.2424 4.08257 42.0048 6.00042 42.7534 7.92511C43.3073 9.34726 43.9192 10.7489 44.4833 12.1676C44.9926 13.4599 45.4576 14.7658 45.9635 16.058C46.5584 17.5827 47.1942 19.0938 47.7822 20.6219C48.3292 22.044 48.8352 23.4867 49.3719 24.9123C49.5804 25.4695 49.8266 26.0097 50.0522 26.5635C50.3189 27.2233 49.9804 27.4557 49.3822 27.4899C49.2693 27.4968 49.1531 27.466 49.0403 27.4728C45.4747 27.6882 46.5755 27.1275 45.3516 24.5499C44.832 23.4525 44.4799 22.2765 43.9842 21.1655C43.8782 20.9296 43.4714 20.6971 43.1979 20.6937C39.7553 20.6629 36.3127 20.6629 32.8702 20.68C31.889 20.6834 31.7933 21.5689 31.5267 22.215C30.9592 23.6029 30.4293 25.0046 29.9302 26.4199C29.5097 27.6096 28.5798 27.5241 27.8346 27.4352L27.8414 27.4386ZM38.0186 16.94C38.0186 16.94 38.0186 16.9435 38.0186 16.9469C39.0989 16.9469 40.1792 16.9435 41.2561 16.9469C41.9364 16.9503 42.203 16.6358 42.0219 15.976C41.9535 15.7298 41.8441 15.5008 41.7484 15.2615C41.1569 13.7607 40.5553 12.2668 39.9775 10.7626C39.4921 9.49768 39.0579 8.21227 38.5588 6.9508C38.4699 6.72859 38.1622 6.59184 37.9571 6.41749C37.7896 6.61577 37.5571 6.79012 37.4648 7.02259C37.1298 7.86016 36.8597 8.72507 36.5315 9.56947C35.7077 11.6788 34.8462 13.7744 34.0394 15.8905C33.7351 16.6871 33.9231 16.9195 34.7744 16.9366C35.8547 16.9571 36.9349 16.94 38.0152 16.94H38.0186Z" fill="#1D2E4E"/>
<path d="M107.92 20.6806C106.269 20.6806 104.618 20.6908 102.97 20.6772C102.167 20.6703 101.784 21.0361 101.517 21.8121C100.915 23.5796 100.201 25.3128 99.483 27.0392C99.3941 27.2512 99.0112 27.4324 98.748 27.4563C97.9856 27.5178 97.213 27.5076 96.4472 27.5007C95.6404 27.4939 95.4934 27.1657 95.808 26.3999C96.4301 24.8855 96.984 23.3437 97.5891 21.819C98.1292 20.4515 98.7138 19.1012 99.2539 17.7337C99.7838 16.397 100.28 15.0467 100.803 13.7066C101.384 12.2092 101.992 10.7221 102.567 9.22476C103.336 7.22144 104.084 5.20787 104.847 3.20114C105.09 2.56527 105.25 1.87129 105.633 1.33457C105.903 0.9551 106.495 0.572213 106.922 0.592725C107.948 0.640586 109.247 -0.012372 109.941 1.11919C110.594 2.18239 110.925 3.44386 111.38 4.62671C111.937 6.0762 112.47 7.53254 113.028 8.98204C113.595 10.4589 114.18 11.9289 114.754 13.4023C115.277 14.7458 115.793 16.0962 116.323 17.4363C116.874 18.8311 117.444 20.2191 117.995 21.6139C118.597 23.142 119.164 24.6838 119.79 26.2017C120.207 27.2102 120.043 27.5007 118.969 27.47C118.258 27.4495 117.544 27.4905 116.839 27.4187C116.58 27.3913 116.214 27.176 116.125 26.9538C115.404 25.1966 114.696 23.4326 114.077 21.6412C113.838 20.9472 113.465 20.6772 112.781 20.6806C111.161 20.6874 109.537 20.6806 107.917 20.6806V20.6874L107.92 20.6806ZM107.749 6.02151C106.946 8.01457 106.238 9.73414 105.554 11.464C104.973 12.9374 104.44 14.4279 103.842 15.8911C103.537 16.6398 103.64 16.9167 104.43 16.9235C106.703 16.9406 108.977 16.9406 111.246 16.9235C112.002 16.9201 112.166 16.5748 111.848 15.8706C111.469 15.0228 111.113 14.1613 110.778 13.2929C110.033 11.3477 109.318 9.39227 108.559 7.45049C108.392 7.02316 108.105 6.64711 107.746 6.02151H107.749Z" fill="#1D2E4E"/>
<path d="M78.3562 20.021C78.6707 20.021 78.9852 20.0449 79.2963 20.0176C80.0039 19.9526 80.3014 20.1885 80.4825 20.9611C80.8415 22.4824 82.0107 23.5251 83.426 23.8977C85.3473 24.4037 87.3301 24.3831 88.9471 22.8482C91.1418 20.7662 90.2974 18.1749 88.1779 16.828C86.6258 15.84 84.7729 15.8263 83.0363 15.4742C80.4005 14.9375 78.2297 13.7444 76.975 11.283C74.9922 7.3994 76.7494 3.10561 80.4894 1.36211C84.5165 -0.511302 89.9897 0.613427 92.6016 4.25085C93.1417 5.00636 93.4391 5.96358 93.7263 6.8661C93.928 7.49854 93.5588 7.89852 92.8717 7.92587C92.6734 7.93271 92.4717 7.91903 92.2734 7.92587C90.9641 7.98741 89.9282 8.01476 89.1898 6.38749C87.8189 3.362 83.0499 3.20133 80.6808 5.68667C79.4501 6.97891 79.6689 9.454 81.2107 10.8009C82.0961 11.5735 83.1354 12.0043 84.3456 12.1855C87.0292 12.5923 89.7607 13.006 91.8768 14.9443C93.4084 16.3494 94.3519 18.0553 94.3724 20.2432C94.4032 23.3917 92.0375 25.754 89.641 26.7864C87.3027 27.7915 84.9131 27.8667 82.5577 27.2856C80.1988 26.7044 78.1647 25.4258 77.0229 23.1251C76.6913 22.455 76.4862 21.7132 76.2879 20.985C76.0964 20.274 76.4691 19.9834 77.1631 20.0073C77.5596 20.021 77.9596 20.0073 78.3562 20.0073V20.0141V20.021Z" fill="#1D2E4E"/>
<path d="M0.00151939 14.0644C0.00151939 10.1364 -0.00189924 6.20838 0.00151939 2.28037C0.00493802 0.728314 0.257917 0.468499 1.78604 0.523197C3.47143 0.581313 3.74834 0.106124 3.73124 2.50942C3.69364 8.83046 3.71757 15.1481 3.71073 21.4691C3.71073 22.8844 3.95345 22.9528 5.3209 22.5289C6.90031 22.0366 8.53783 21.6401 10.1788 21.4555C12.1684 21.2332 13.8948 22.2178 15.6623 23.0144C17.6998 23.934 19.8125 24.5972 22.0448 23.5477C22.6499 23.2639 22.9884 23.5237 22.9918 24.1698C22.9918 24.9937 23.0055 25.8279 22.8961 26.6415C22.8619 26.9048 22.4961 27.2876 22.2294 27.3355C18.9578 27.9509 15.881 27.4449 12.9342 25.8347C12.1137 25.3869 11.0403 25.298 10.0728 25.2536C7.9635 25.1578 6.0901 25.9715 4.29532 26.9936C3.07145 27.691 1.75186 27.3663 0.476709 27.2295C0.281847 27.209 0.0288684 26.5014 0.0254498 26.1082C-0.00873649 22.0947 0.00151939 18.0813 0.00151939 14.0644Z" fill="#1D2E4E"/>
</svg>
