<svg width="120" height="30" viewBox="0 0 120 30" fill="none" xmlns="http://www.w3.org/2000/svg">
<path d="M20.228 6.86793C19.7918 7.54606 19.342 8.21056 18.9263 8.89891C17.5564 11.1718 16.1763 13.4414 14.8507 15.7415C14.5713 16.2288 14.2748 16.4606 13.7296 16.4572C12.7073 16.4469 11.685 16.4606 10.6627 16.4674C10.0595 16.4708 9.71191 16.1811 9.40522 15.6427C7.8888 12.9677 6.32467 10.3165 4.76395 7.66533C4.68216 7.52561 4.46748 7.46086 4.31413 7.35863C4.20849 7.56991 4.01426 7.78119 4.00744 7.99928C3.97336 9.33169 3.97677 10.6675 3.97677 12.0033C3.98699 17.5135 4.00063 23.0204 4.01085 28.5306C4.01085 29.5359 3.83365 29.7199 2.82838 29.7403C2.20477 29.754 1.57776 29.754 0.954153 29.7471C0.303284 29.7437 0 29.4779 0 28.7589C0.0238538 19.674 0.0272615 10.5857 0.0136307 1.50082C0.0136307 0.853359 0.272615 0.61482 0.85533 0.61482C2.10595 0.61482 3.35316 0.631859 4.60379 0.628451C5.58861 0.628451 5.69425 1.55193 6.05205 2.1108C7.39468 4.20312 8.63508 6.36359 9.90274 8.50362C10.4514 9.4271 10.9557 10.3744 11.5248 11.2809C11.6918 11.5501 11.9848 11.7954 12.2745 11.9045C12.3699 11.942 12.6766 11.5399 12.8265 11.3013C14.2646 8.96706 15.6924 6.62598 17.11 4.28149C17.6518 3.38868 18.163 2.47542 18.6775 1.56897C19.0217 0.962405 19.4545 0.570521 20.228 0.604597C21.3321 0.652305 22.443 0.628451 23.5505 0.608005C24.2627 0.597782 24.5592 0.88062 24.5592 1.6235C24.5422 9.71675 24.549 17.81 24.5524 25.8999C24.5524 26.8642 24.5354 27.8286 24.5592 28.793C24.5728 29.3927 24.3275 29.7062 23.7209 29.7131C22.9542 29.7199 22.1875 29.7165 21.4207 29.7369C20.746 29.754 20.5518 29.4166 20.5552 28.7828C20.5688 24.0972 20.5552 19.4116 20.562 14.7261C20.5654 12.3986 20.6029 10.0712 20.6097 7.7437C20.6097 7.4745 20.5347 7.20529 20.4938 6.93608C20.4052 6.91223 20.3132 6.88837 20.2246 6.86793H20.228Z" fill="#1D2E4E"/>
<path d="M61.6889 0.608211C63.3348 0.608211 64.9841 0.608211 66.63 0.608211C70.3717 0.597988 73.0024 2.44155 74.5154 5.72656C75.1561 7.11689 75.4287 8.69806 74.9789 10.3712C74.5665 11.9115 73.8714 13.1826 72.8388 14.3412C72.021 15.2613 72.0312 15.2953 72.8934 16.1132C74.5256 17.6603 75.0879 19.6708 75.1901 21.7972C75.2992 24.0906 75.1969 26.3942 75.2242 28.6944C75.231 29.3827 74.9516 29.703 74.2905 29.7201C73.551 29.7371 72.815 29.7508 72.0755 29.7508C71.4928 29.7508 71.1691 29.4645 71.1725 28.8682C71.1827 26.6566 71.1622 24.4416 71.227 22.23C71.3054 19.5652 69.3766 17.1253 66.5823 17.1491C64.3401 17.1696 62.0944 17.173 59.8521 17.1287C59.0241 17.1116 58.731 17.4524 58.7344 18.2294C58.7549 21.6916 58.7378 25.1572 58.7923 28.6194C58.806 29.4032 58.5163 29.7371 57.7871 29.7508C57.0203 29.7644 56.2536 29.7678 55.4903 29.7439C54.9485 29.7269 54.6861 29.4202 54.6895 28.8579C54.7133 19.773 54.7338 10.6882 54.744 1.60326C54.744 0.90468 54.9655 0.563911 55.7322 0.577542C57.7189 0.615026 59.7056 0.591172 61.6957 0.591172C61.6957 0.597988 61.6957 0.601395 61.6957 0.608211H61.6889ZM63.4506 13.2405C63.4506 13.2405 63.4506 13.2337 63.4506 13.2269C64.415 13.2269 65.3794 13.2167 66.3438 13.2269C67.3252 13.2371 68.2214 13.0463 69.0836 12.5079C70.2456 11.7786 71.4894 9.55339 71.1759 8.30959C70.5591 5.88331 69.1551 4.43504 66.4562 4.30896C64.2787 4.20673 62.091 4.30214 59.9101 4.26807C59.1161 4.25444 58.7446 4.57817 58.7412 5.35512C58.7412 7.6519 58.7412 9.94868 58.7412 12.2455C58.7412 12.9543 59.0786 13.261 59.7976 13.2439C61.0176 13.2132 62.2375 13.2371 63.4541 13.2371L63.4506 13.2405Z" fill="#1D2E4E"/>
<path d="M49.6161 10.565C49.6161 13.4616 49.6161 16.3547 49.6161 19.2512C49.6161 20.3553 49.6809 20.4201 50.7475 20.4439C51.7357 20.4644 51.8925 20.6109 51.9163 21.5753C51.9299 22.1137 51.8993 22.6555 51.9163 23.1939C51.9436 23.9777 51.5926 24.3219 50.7986 24.3287C49.6638 24.3355 49.6127 24.4173 49.6195 25.5555C49.6229 26.6323 49.6093 27.7125 49.6366 28.7894C49.6536 29.4402 49.3742 29.7333 48.7335 29.7299C47.9668 29.7299 47.2001 29.7435 46.4333 29.7571C45.8643 29.7674 45.6189 29.505 45.6359 28.9223C45.67 27.7023 45.6428 26.4824 45.6836 25.2658C45.7075 24.5638 45.4178 24.298 44.7295 24.3014C41.6353 24.3185 38.5411 24.2912 35.447 24.3457C35.0891 24.3526 34.6121 24.6695 34.4076 24.983C33.5148 26.3563 32.7174 27.7943 31.845 29.1812C31.7053 29.4027 31.3748 29.6242 31.1226 29.6379C30.0764 29.6992 29.0235 29.706 27.9739 29.6788C27.2481 29.6583 27.0606 29.2767 27.4253 28.6769C29.9538 24.5298 32.4959 20.3962 35.0108 16.2388C36.868 13.1685 38.6843 10.0743 40.521 6.99038C41.6217 5.14682 42.719 3.29986 43.8299 1.46652C44.1672 0.907659 44.6102 0.553259 45.3565 0.600967C46.3754 0.665713 47.3977 0.600967 48.42 0.614598C49.4832 0.628229 49.6059 0.74409 49.6059 1.79025C49.6161 4.71405 49.6059 7.63784 49.6059 10.5616L49.6161 10.565ZM45.5542 6.94267C45.4485 6.9086 45.3395 6.87793 45.2338 6.84385C44.692 7.77756 44.157 8.71808 43.6015 9.64838C41.6285 12.9402 39.652 16.232 37.6688 19.517C37.1985 20.2974 37.2462 20.4303 38.1152 20.4337C40.3268 20.4507 42.5384 20.4337 44.7465 20.4542C45.4519 20.461 45.67 20.1781 45.6632 19.4796C45.6393 15.5675 45.6564 11.6589 45.653 7.74689C45.653 7.47768 45.5848 7.20847 45.5473 6.93927L45.5542 6.94267Z" fill="#1D2E4E"/>
<path d="M117.551 10.6332C117.551 13.5298 117.551 16.4263 117.551 19.3194C117.551 20.369 117.626 20.4372 118.652 20.4406C119.725 20.444 119.936 20.6416 119.987 21.7253C120.004 22.066 120.001 22.4068 119.994 22.7476C119.964 24.1413 119.824 24.3015 118.42 24.2981C117.786 24.2981 117.548 24.557 117.558 25.1602C117.575 26.295 117.558 27.4297 117.578 28.5645C117.599 29.5663 117.52 29.6822 116.491 29.7299C115.81 29.7606 115.128 29.747 114.447 29.7606C113.837 29.7742 113.578 29.488 113.584 28.878C113.601 27.6853 113.564 26.4926 113.598 25.2999C113.622 24.5605 113.325 24.2981 112.593 24.3015C109.727 24.3219 106.858 24.3424 103.992 24.2742C103 24.2504 102.411 24.6388 101.954 25.4499C101.262 26.68 100.557 27.9068 99.7935 29.0927C99.6129 29.3721 99.1903 29.6277 98.8632 29.6481C97.8749 29.7163 96.8765 29.689 95.8848 29.6549C95.1795 29.6277 94.9988 29.3005 95.3498 28.7281C97.207 25.6884 99.0915 22.6658 100.935 19.6193C102.734 16.6478 104.493 13.649 106.275 10.6673C108.098 7.61062 109.925 4.55392 111.761 1.50404C112.112 0.921326 112.593 0.566926 113.366 0.614634C114.44 0.682787 115.523 0.638488 116.6 0.628265C117.333 0.621449 117.592 0.992887 117.588 1.69487C117.571 4.67319 117.582 7.65492 117.582 10.6332C117.571 10.6332 117.558 10.6332 117.548 10.6332H117.551ZM113.441 6.71439C113.179 6.89841 113.087 6.92908 113.049 6.99382C110.579 11.1376 108.112 15.2847 105.655 19.4387C105.512 19.6806 105.454 19.9771 105.358 20.2497C105.651 20.3145 105.944 20.4337 106.241 20.4372C108.367 20.4508 110.494 20.4235 112.62 20.4542C113.37 20.4644 113.612 20.1714 113.608 19.4489C113.588 15.5642 113.608 11.6794 113.598 7.79463C113.598 7.48112 113.509 7.16762 113.441 6.7178V6.71439Z" fill="#1D2E4E"/>
<path d="M86.6694 29.696C83.2753 29.8629 80.8014 28.275 79.0055 25.5352C78.5353 24.8196 78.266 23.9506 78.0241 23.1191C77.8503 22.5126 78.1877 22.1922 78.8726 22.1922C80.5015 22.1922 81.7896 22.2195 82.8937 24.046C84.7543 27.1129 89.4978 26.4518 91.0551 23.0271C91.8286 21.3233 91.0721 18.897 89.416 17.8372C88.7958 17.4419 88.0495 17.1557 87.3237 17.0296C85.6539 16.7433 83.9501 16.6616 82.4098 15.8267C80.6821 14.8896 79.4451 13.5537 78.5727 11.7783C77.7549 10.1154 77.7856 8.38088 78.0718 6.70089C78.3785 4.8914 79.4076 3.35113 80.8525 2.15844C82.3382 0.93167 84.0932 0.287617 85.981 0.124048C87.8894 -0.0429283 89.6409 0.543194 91.3209 1.4769C93.1644 2.49921 94.2242 4.094 94.9978 5.96142C95.3931 6.91898 95.1136 7.34153 94.0879 7.33131C93.8051 7.33131 93.5154 7.30405 93.236 7.34153C91.9581 7.51532 91.1403 7.13025 90.4349 5.89326C89.4773 4.20987 86.7103 3.31364 84.71 4.35299C82.9039 5.2901 81.9157 6.63614 81.9327 8.71483C81.9498 10.4834 82.955 11.6318 84.3283 12.4462C85.0235 12.8586 85.9299 13.0869 86.7444 13.0937C90.0566 13.121 92.4693 14.6851 94.2481 17.3261C95.1205 18.6244 95.3522 20.151 95.2943 21.7152C95.1614 25.3205 93.2122 27.665 90.0498 29.0621C89.0207 29.5188 87.8382 29.6346 86.7273 29.9038C86.7103 29.8357 86.6898 29.7675 86.6728 29.6994L86.6694 29.696Z" fill="#1D2E4E"/>
</svg>
